<svg width="20" height="21" viewBox="0 0 20 21" fill="none" xmlns="http://www.w3.org/2000/svg">
<path d="M18.5236 0.193359H1.47639C1.08483 0.193359 0.709301 0.348907 0.432425 0.625784C0.155548 0.902661 0 1.27819 0 1.66975V18.717C0 19.1085 0.155548 19.4841 0.432425 19.7609C0.709301 20.0378 1.08483 20.1934 1.47639 20.1934H18.5236C18.9152 20.1934 19.2907 20.0378 19.5676 19.7609C19.8445 19.4841 20 19.1085 20 18.717V1.66975C20 1.27819 19.8445 0.902661 19.5676 0.625784C19.2907 0.348907 18.9152 0.193359 18.5236 0.193359ZM5.96111 17.2309H2.95417V7.67947H5.96111V17.2309ZM4.45556 6.35586C4.11447 6.35394 3.7816 6.25102 3.49895 6.0601C3.21629 5.86918 2.99653 5.5988 2.8674 5.2831C2.73826 4.9674 2.70554 4.62052 2.77336 4.28624C2.84118 3.95196 3.0065 3.64526 3.24846 3.40484C3.49042 3.16443 3.79818 3.00108 4.13289 2.93541C4.4676 2.86974 4.81426 2.90469 5.12913 3.03585C5.44399 3.16701 5.71295 3.3885 5.90205 3.67237C6.09116 3.95624 6.19194 4.28977 6.19167 4.63086C6.19488 4.85922 6.15209 5.08589 6.06584 5.29736C5.97959 5.50883 5.85165 5.70078 5.68964 5.86175C5.52763 6.02272 5.33487 6.14943 5.12285 6.23432C4.91083 6.31921 4.68389 6.36054 4.45556 6.35586ZM17.0444 17.2392H14.0389V12.0211C14.0389 10.4822 13.3847 10.0072 12.5403 10.0072C11.6486 10.0072 10.7736 10.6795 10.7736 12.06V17.2392H7.76667V7.68642H10.6583V9.01003H10.6972C10.9875 8.42253 12.0042 7.41836 13.5556 7.41836C15.2333 7.41836 17.0458 8.41419 17.0458 11.3309L17.0444 17.2392Z" fill="white" fill-opacity="0.9"/>
</svg>
